G75*
%MOIN*%
%OFA0B0*%
%FSLAX25Y25*%
%IPPOS*%
%LPD*%
%AMOC8*
5,1,8,0,0,1.08239X$1,22.5*
%
%ADD10C,0.00000*%
%ADD11C,0.07400*%
%ADD12C,0.03200*%
D10*
X0016000Y0001000D02*
X0166000Y0001000D01*
X0166362Y0001004D01*
X0166725Y0001018D01*
X0167087Y0001039D01*
X0167448Y0001070D01*
X0167808Y0001109D01*
X0168167Y0001157D01*
X0168525Y0001214D01*
X0168882Y0001279D01*
X0169237Y0001353D01*
X0169590Y0001436D01*
X0169941Y0001527D01*
X0170289Y0001626D01*
X0170635Y0001734D01*
X0170979Y0001850D01*
X0171319Y0001975D01*
X0171656Y0002107D01*
X0171990Y0002248D01*
X0172321Y0002397D01*
X0172648Y0002554D01*
X0172971Y0002718D01*
X0173290Y0002890D01*
X0173604Y0003070D01*
X0173915Y0003258D01*
X0174220Y0003453D01*
X0174521Y0003655D01*
X0174817Y0003865D01*
X0175107Y0004081D01*
X0175393Y0004305D01*
X0175673Y0004535D01*
X0175947Y0004772D01*
X0176215Y0005016D01*
X0176478Y0005266D01*
X0176734Y0005522D01*
X0176984Y0005785D01*
X0177228Y0006053D01*
X0177465Y0006327D01*
X0177695Y0006607D01*
X0177919Y0006893D01*
X0178135Y0007183D01*
X0178345Y0007479D01*
X0178547Y0007780D01*
X0178742Y0008085D01*
X0178930Y0008396D01*
X0179110Y0008710D01*
X0179282Y0009029D01*
X0179446Y0009352D01*
X0179603Y0009679D01*
X0179752Y0010010D01*
X0179893Y0010344D01*
X0180025Y0010681D01*
X0180150Y0011021D01*
X0180266Y0011365D01*
X0180374Y0011711D01*
X0180473Y0012059D01*
X0180564Y0012410D01*
X0180647Y0012763D01*
X0180721Y0013118D01*
X0180786Y0013475D01*
X0180843Y0013833D01*
X0180891Y0014192D01*
X0180930Y0014552D01*
X0180961Y0014913D01*
X0180982Y0015275D01*
X0180996Y0015638D01*
X0181000Y0016000D01*
X0181000Y0036000D01*
X0180996Y0036362D01*
X0180982Y0036725D01*
X0180961Y0037087D01*
X0180930Y0037448D01*
X0180891Y0037808D01*
X0180843Y0038167D01*
X0180786Y0038525D01*
X0180721Y0038882D01*
X0180647Y0039237D01*
X0180564Y0039590D01*
X0180473Y0039941D01*
X0180374Y0040289D01*
X0180266Y0040635D01*
X0180150Y0040979D01*
X0180025Y0041319D01*
X0179893Y0041656D01*
X0179752Y0041990D01*
X0179603Y0042321D01*
X0179446Y0042648D01*
X0179282Y0042971D01*
X0179110Y0043290D01*
X0178930Y0043604D01*
X0178742Y0043915D01*
X0178547Y0044220D01*
X0178345Y0044521D01*
X0178135Y0044817D01*
X0177919Y0045107D01*
X0177695Y0045393D01*
X0177465Y0045673D01*
X0177228Y0045947D01*
X0176984Y0046215D01*
X0176734Y0046478D01*
X0176478Y0046734D01*
X0176215Y0046984D01*
X0175947Y0047228D01*
X0175673Y0047465D01*
X0175393Y0047695D01*
X0175107Y0047919D01*
X0174817Y0048135D01*
X0174521Y0048345D01*
X0174220Y0048547D01*
X0173915Y0048742D01*
X0173604Y0048930D01*
X0173290Y0049110D01*
X0172971Y0049282D01*
X0172648Y0049446D01*
X0172321Y0049603D01*
X0171990Y0049752D01*
X0171656Y0049893D01*
X0171319Y0050025D01*
X0170979Y0050150D01*
X0170635Y0050266D01*
X0170289Y0050374D01*
X0169941Y0050473D01*
X0169590Y0050564D01*
X0169237Y0050647D01*
X0168882Y0050721D01*
X0168525Y0050786D01*
X0168167Y0050843D01*
X0167808Y0050891D01*
X0167448Y0050930D01*
X0167087Y0050961D01*
X0166725Y0050982D01*
X0166362Y0050996D01*
X0166000Y0051000D01*
X0016000Y0051000D01*
X0015638Y0050996D01*
X0015275Y0050982D01*
X0014913Y0050961D01*
X0014552Y0050930D01*
X0014192Y0050891D01*
X0013833Y0050843D01*
X0013475Y0050786D01*
X0013118Y0050721D01*
X0012763Y0050647D01*
X0012410Y0050564D01*
X0012059Y0050473D01*
X0011711Y0050374D01*
X0011365Y0050266D01*
X0011021Y0050150D01*
X0010681Y0050025D01*
X0010344Y0049893D01*
X0010010Y0049752D01*
X0009679Y0049603D01*
X0009352Y0049446D01*
X0009029Y0049282D01*
X0008710Y0049110D01*
X0008396Y0048930D01*
X0008085Y0048742D01*
X0007780Y0048547D01*
X0007479Y0048345D01*
X0007183Y0048135D01*
X0006893Y0047919D01*
X0006607Y0047695D01*
X0006327Y0047465D01*
X0006053Y0047228D01*
X0005785Y0046984D01*
X0005522Y0046734D01*
X0005266Y0046478D01*
X0005016Y0046215D01*
X0004772Y0045947D01*
X0004535Y0045673D01*
X0004305Y0045393D01*
X0004081Y0045107D01*
X0003865Y0044817D01*
X0003655Y0044521D01*
X0003453Y0044220D01*
X0003258Y0043915D01*
X0003070Y0043604D01*
X0002890Y0043290D01*
X0002718Y0042971D01*
X0002554Y0042648D01*
X0002397Y0042321D01*
X0002248Y0041990D01*
X0002107Y0041656D01*
X0001975Y0041319D01*
X0001850Y0040979D01*
X0001734Y0040635D01*
X0001626Y0040289D01*
X0001527Y0039941D01*
X0001436Y0039590D01*
X0001353Y0039237D01*
X0001279Y0038882D01*
X0001214Y0038525D01*
X0001157Y0038167D01*
X0001109Y0037808D01*
X0001070Y0037448D01*
X0001039Y0037087D01*
X0001018Y0036725D01*
X0001004Y0036362D01*
X0001000Y0036000D01*
X0001000Y0016000D01*
X0001004Y0015638D01*
X0001018Y0015275D01*
X0001039Y0014913D01*
X0001070Y0014552D01*
X0001109Y0014192D01*
X0001157Y0013833D01*
X0001214Y0013475D01*
X0001279Y0013118D01*
X0001353Y0012763D01*
X0001436Y0012410D01*
X0001527Y0012059D01*
X0001626Y0011711D01*
X0001734Y0011365D01*
X0001850Y0011021D01*
X0001975Y0010681D01*
X0002107Y0010344D01*
X0002248Y0010010D01*
X0002397Y0009679D01*
X0002554Y0009352D01*
X0002718Y0009029D01*
X0002890Y0008710D01*
X0003070Y0008396D01*
X0003258Y0008085D01*
X0003453Y0007780D01*
X0003655Y0007479D01*
X0003865Y0007183D01*
X0004081Y0006893D01*
X0004305Y0006607D01*
X0004535Y0006327D01*
X0004772Y0006053D01*
X0005016Y0005785D01*
X0005266Y0005522D01*
X0005522Y0005266D01*
X0005785Y0005016D01*
X0006053Y0004772D01*
X0006327Y0004535D01*
X0006607Y0004305D01*
X0006893Y0004081D01*
X0007183Y0003865D01*
X0007479Y0003655D01*
X0007780Y0003453D01*
X0008085Y0003258D01*
X0008396Y0003070D01*
X0008710Y0002890D01*
X0009029Y0002718D01*
X0009352Y0002554D01*
X0009679Y0002397D01*
X0010010Y0002248D01*
X0010344Y0002107D01*
X0010681Y0001975D01*
X0011021Y0001850D01*
X0011365Y0001734D01*
X0011711Y0001626D01*
X0012059Y0001527D01*
X0012410Y0001436D01*
X0012763Y0001353D01*
X0013118Y0001279D01*
X0013475Y0001214D01*
X0013833Y0001157D01*
X0014192Y0001109D01*
X0014552Y0001070D01*
X0014913Y0001039D01*
X0015275Y0001018D01*
X0015638Y0001004D01*
X0016000Y0001000D01*
X0008500Y0026000D02*
X0008502Y0026184D01*
X0008509Y0026368D01*
X0008520Y0026552D01*
X0008536Y0026735D01*
X0008556Y0026918D01*
X0008581Y0027100D01*
X0008610Y0027282D01*
X0008644Y0027463D01*
X0008682Y0027643D01*
X0008725Y0027822D01*
X0008772Y0028000D01*
X0008823Y0028177D01*
X0008879Y0028353D01*
X0008938Y0028527D01*
X0009003Y0028699D01*
X0009071Y0028870D01*
X0009143Y0029039D01*
X0009220Y0029207D01*
X0009301Y0029372D01*
X0009386Y0029535D01*
X0009474Y0029697D01*
X0009567Y0029856D01*
X0009664Y0030012D01*
X0009764Y0030167D01*
X0009868Y0030319D01*
X0009976Y0030468D01*
X0010087Y0030614D01*
X0010202Y0030758D01*
X0010321Y0030899D01*
X0010443Y0031037D01*
X0010568Y0031172D01*
X0010697Y0031303D01*
X0010828Y0031432D01*
X0010963Y0031557D01*
X0011101Y0031679D01*
X0011242Y0031798D01*
X0011386Y0031913D01*
X0011532Y0032024D01*
X0011681Y0032132D01*
X0011833Y0032236D01*
X0011988Y0032336D01*
X0012144Y0032433D01*
X0012303Y0032526D01*
X0012465Y0032614D01*
X0012628Y0032699D01*
X0012793Y0032780D01*
X0012961Y0032857D01*
X0013130Y0032929D01*
X0013301Y0032997D01*
X0013473Y0033062D01*
X0013647Y0033121D01*
X0013823Y0033177D01*
X0014000Y0033228D01*
X0014178Y0033275D01*
X0014357Y0033318D01*
X0014537Y0033356D01*
X0014718Y0033390D01*
X0014900Y0033419D01*
X0015082Y0033444D01*
X0015265Y0033464D01*
X0015448Y0033480D01*
X0015632Y0033491D01*
X0015816Y0033498D01*
X0016000Y0033500D01*
X0016184Y0033498D01*
X0016368Y0033491D01*
X0016552Y0033480D01*
X0016735Y0033464D01*
X0016918Y0033444D01*
X0017100Y0033419D01*
X0017282Y0033390D01*
X0017463Y0033356D01*
X0017643Y0033318D01*
X0017822Y0033275D01*
X0018000Y0033228D01*
X0018177Y0033177D01*
X0018353Y0033121D01*
X0018527Y0033062D01*
X0018699Y0032997D01*
X0018870Y0032929D01*
X0019039Y0032857D01*
X0019207Y0032780D01*
X0019372Y0032699D01*
X0019535Y0032614D01*
X0019697Y0032526D01*
X0019856Y0032433D01*
X0020012Y0032336D01*
X0020167Y0032236D01*
X0020319Y0032132D01*
X0020468Y0032024D01*
X0020614Y0031913D01*
X0020758Y0031798D01*
X0020899Y0031679D01*
X0021037Y0031557D01*
X0021172Y0031432D01*
X0021303Y0031303D01*
X0021432Y0031172D01*
X0021557Y0031037D01*
X0021679Y0030899D01*
X0021798Y0030758D01*
X0021913Y0030614D01*
X0022024Y0030468D01*
X0022132Y0030319D01*
X0022236Y0030167D01*
X0022336Y0030012D01*
X0022433Y0029856D01*
X0022526Y0029697D01*
X0022614Y0029535D01*
X0022699Y0029372D01*
X0022780Y0029207D01*
X0022857Y0029039D01*
X0022929Y0028870D01*
X0022997Y0028699D01*
X0023062Y0028527D01*
X0023121Y0028353D01*
X0023177Y0028177D01*
X0023228Y0028000D01*
X0023275Y0027822D01*
X0023318Y0027643D01*
X0023356Y0027463D01*
X0023390Y0027282D01*
X0023419Y0027100D01*
X0023444Y0026918D01*
X0023464Y0026735D01*
X0023480Y0026552D01*
X0023491Y0026368D01*
X0023498Y0026184D01*
X0023500Y0026000D01*
X0023498Y0025816D01*
X0023491Y0025632D01*
X0023480Y0025448D01*
X0023464Y0025265D01*
X0023444Y0025082D01*
X0023419Y0024900D01*
X0023390Y0024718D01*
X0023356Y0024537D01*
X0023318Y0024357D01*
X0023275Y0024178D01*
X0023228Y0024000D01*
X0023177Y0023823D01*
X0023121Y0023647D01*
X0023062Y0023473D01*
X0022997Y0023301D01*
X0022929Y0023130D01*
X0022857Y0022961D01*
X0022780Y0022793D01*
X0022699Y0022628D01*
X0022614Y0022465D01*
X0022526Y0022303D01*
X0022433Y0022144D01*
X0022336Y0021988D01*
X0022236Y0021833D01*
X0022132Y0021681D01*
X0022024Y0021532D01*
X0021913Y0021386D01*
X0021798Y0021242D01*
X0021679Y0021101D01*
X0021557Y0020963D01*
X0021432Y0020828D01*
X0021303Y0020697D01*
X0021172Y0020568D01*
X0021037Y0020443D01*
X0020899Y0020321D01*
X0020758Y0020202D01*
X0020614Y0020087D01*
X0020468Y0019976D01*
X0020319Y0019868D01*
X0020167Y0019764D01*
X0020012Y0019664D01*
X0019856Y0019567D01*
X0019697Y0019474D01*
X0019535Y0019386D01*
X0019372Y0019301D01*
X0019207Y0019220D01*
X0019039Y0019143D01*
X0018870Y0019071D01*
X0018699Y0019003D01*
X0018527Y0018938D01*
X0018353Y0018879D01*
X0018177Y0018823D01*
X0018000Y0018772D01*
X0017822Y0018725D01*
X0017643Y0018682D01*
X0017463Y0018644D01*
X0017282Y0018610D01*
X0017100Y0018581D01*
X0016918Y0018556D01*
X0016735Y0018536D01*
X0016552Y0018520D01*
X0016368Y0018509D01*
X0016184Y0018502D01*
X0016000Y0018500D01*
X0015816Y0018502D01*
X0015632Y0018509D01*
X0015448Y0018520D01*
X0015265Y0018536D01*
X0015082Y0018556D01*
X0014900Y0018581D01*
X0014718Y0018610D01*
X0014537Y0018644D01*
X0014357Y0018682D01*
X0014178Y0018725D01*
X0014000Y0018772D01*
X0013823Y0018823D01*
X0013647Y0018879D01*
X0013473Y0018938D01*
X0013301Y0019003D01*
X0013130Y0019071D01*
X0012961Y0019143D01*
X0012793Y0019220D01*
X0012628Y0019301D01*
X0012465Y0019386D01*
X0012303Y0019474D01*
X0012144Y0019567D01*
X0011988Y0019664D01*
X0011833Y0019764D01*
X0011681Y0019868D01*
X0011532Y0019976D01*
X0011386Y0020087D01*
X0011242Y0020202D01*
X0011101Y0020321D01*
X0010963Y0020443D01*
X0010828Y0020568D01*
X0010697Y0020697D01*
X0010568Y0020828D01*
X0010443Y0020963D01*
X0010321Y0021101D01*
X0010202Y0021242D01*
X0010087Y0021386D01*
X0009976Y0021532D01*
X0009868Y0021681D01*
X0009764Y0021833D01*
X0009664Y0021988D01*
X0009567Y0022144D01*
X0009474Y0022303D01*
X0009386Y0022465D01*
X0009301Y0022628D01*
X0009220Y0022793D01*
X0009143Y0022961D01*
X0009071Y0023130D01*
X0009003Y0023301D01*
X0008938Y0023473D01*
X0008879Y0023647D01*
X0008823Y0023823D01*
X0008772Y0024000D01*
X0008725Y0024178D01*
X0008682Y0024357D01*
X0008644Y0024537D01*
X0008610Y0024718D01*
X0008581Y0024900D01*
X0008556Y0025082D01*
X0008536Y0025265D01*
X0008520Y0025448D01*
X0008509Y0025632D01*
X0008502Y0025816D01*
X0008500Y0026000D01*
X0158500Y0026000D02*
X0158502Y0026184D01*
X0158509Y0026368D01*
X0158520Y0026552D01*
X0158536Y0026735D01*
X0158556Y0026918D01*
X0158581Y0027100D01*
X0158610Y0027282D01*
X0158644Y0027463D01*
X0158682Y0027643D01*
X0158725Y0027822D01*
X0158772Y0028000D01*
X0158823Y0028177D01*
X0158879Y0028353D01*
X0158938Y0028527D01*
X0159003Y0028699D01*
X0159071Y0028870D01*
X0159143Y0029039D01*
X0159220Y0029207D01*
X0159301Y0029372D01*
X0159386Y0029535D01*
X0159474Y0029697D01*
X0159567Y0029856D01*
X0159664Y0030012D01*
X0159764Y0030167D01*
X0159868Y0030319D01*
X0159976Y0030468D01*
X0160087Y0030614D01*
X0160202Y0030758D01*
X0160321Y0030899D01*
X0160443Y0031037D01*
X0160568Y0031172D01*
X0160697Y0031303D01*
X0160828Y0031432D01*
X0160963Y0031557D01*
X0161101Y0031679D01*
X0161242Y0031798D01*
X0161386Y0031913D01*
X0161532Y0032024D01*
X0161681Y0032132D01*
X0161833Y0032236D01*
X0161988Y0032336D01*
X0162144Y0032433D01*
X0162303Y0032526D01*
X0162465Y0032614D01*
X0162628Y0032699D01*
X0162793Y0032780D01*
X0162961Y0032857D01*
X0163130Y0032929D01*
X0163301Y0032997D01*
X0163473Y0033062D01*
X0163647Y0033121D01*
X0163823Y0033177D01*
X0164000Y0033228D01*
X0164178Y0033275D01*
X0164357Y0033318D01*
X0164537Y0033356D01*
X0164718Y0033390D01*
X0164900Y0033419D01*
X0165082Y0033444D01*
X0165265Y0033464D01*
X0165448Y0033480D01*
X0165632Y0033491D01*
X0165816Y0033498D01*
X0166000Y0033500D01*
X0166184Y0033498D01*
X0166368Y0033491D01*
X0166552Y0033480D01*
X0166735Y0033464D01*
X0166918Y0033444D01*
X0167100Y0033419D01*
X0167282Y0033390D01*
X0167463Y0033356D01*
X0167643Y0033318D01*
X0167822Y0033275D01*
X0168000Y0033228D01*
X0168177Y0033177D01*
X0168353Y0033121D01*
X0168527Y0033062D01*
X0168699Y0032997D01*
X0168870Y0032929D01*
X0169039Y0032857D01*
X0169207Y0032780D01*
X0169372Y0032699D01*
X0169535Y0032614D01*
X0169697Y0032526D01*
X0169856Y0032433D01*
X0170012Y0032336D01*
X0170167Y0032236D01*
X0170319Y0032132D01*
X0170468Y0032024D01*
X0170614Y0031913D01*
X0170758Y0031798D01*
X0170899Y0031679D01*
X0171037Y0031557D01*
X0171172Y0031432D01*
X0171303Y0031303D01*
X0171432Y0031172D01*
X0171557Y0031037D01*
X0171679Y0030899D01*
X0171798Y0030758D01*
X0171913Y0030614D01*
X0172024Y0030468D01*
X0172132Y0030319D01*
X0172236Y0030167D01*
X0172336Y0030012D01*
X0172433Y0029856D01*
X0172526Y0029697D01*
X0172614Y0029535D01*
X0172699Y0029372D01*
X0172780Y0029207D01*
X0172857Y0029039D01*
X0172929Y0028870D01*
X0172997Y0028699D01*
X0173062Y0028527D01*
X0173121Y0028353D01*
X0173177Y0028177D01*
X0173228Y0028000D01*
X0173275Y0027822D01*
X0173318Y0027643D01*
X0173356Y0027463D01*
X0173390Y0027282D01*
X0173419Y0027100D01*
X0173444Y0026918D01*
X0173464Y0026735D01*
X0173480Y0026552D01*
X0173491Y0026368D01*
X0173498Y0026184D01*
X0173500Y0026000D01*
X0173498Y0025816D01*
X0173491Y0025632D01*
X0173480Y0025448D01*
X0173464Y0025265D01*
X0173444Y0025082D01*
X0173419Y0024900D01*
X0173390Y0024718D01*
X0173356Y0024537D01*
X0173318Y0024357D01*
X0173275Y0024178D01*
X0173228Y0024000D01*
X0173177Y0023823D01*
X0173121Y0023647D01*
X0173062Y0023473D01*
X0172997Y0023301D01*
X0172929Y0023130D01*
X0172857Y0022961D01*
X0172780Y0022793D01*
X0172699Y0022628D01*
X0172614Y0022465D01*
X0172526Y0022303D01*
X0172433Y0022144D01*
X0172336Y0021988D01*
X0172236Y0021833D01*
X0172132Y0021681D01*
X0172024Y0021532D01*
X0171913Y0021386D01*
X0171798Y0021242D01*
X0171679Y0021101D01*
X0171557Y0020963D01*
X0171432Y0020828D01*
X0171303Y0020697D01*
X0171172Y0020568D01*
X0171037Y0020443D01*
X0170899Y0020321D01*
X0170758Y0020202D01*
X0170614Y0020087D01*
X0170468Y0019976D01*
X0170319Y0019868D01*
X0170167Y0019764D01*
X0170012Y0019664D01*
X0169856Y0019567D01*
X0169697Y0019474D01*
X0169535Y0019386D01*
X0169372Y0019301D01*
X0169207Y0019220D01*
X0169039Y0019143D01*
X0168870Y0019071D01*
X0168699Y0019003D01*
X0168527Y0018938D01*
X0168353Y0018879D01*
X0168177Y0018823D01*
X0168000Y0018772D01*
X0167822Y0018725D01*
X0167643Y0018682D01*
X0167463Y0018644D01*
X0167282Y0018610D01*
X0167100Y0018581D01*
X0166918Y0018556D01*
X0166735Y0018536D01*
X0166552Y0018520D01*
X0166368Y0018509D01*
X0166184Y0018502D01*
X0166000Y0018500D01*
X0165816Y0018502D01*
X0165632Y0018509D01*
X0165448Y0018520D01*
X0165265Y0018536D01*
X0165082Y0018556D01*
X0164900Y0018581D01*
X0164718Y0018610D01*
X0164537Y0018644D01*
X0164357Y0018682D01*
X0164178Y0018725D01*
X0164000Y0018772D01*
X0163823Y0018823D01*
X0163647Y0018879D01*
X0163473Y0018938D01*
X0163301Y0019003D01*
X0163130Y0019071D01*
X0162961Y0019143D01*
X0162793Y0019220D01*
X0162628Y0019301D01*
X0162465Y0019386D01*
X0162303Y0019474D01*
X0162144Y0019567D01*
X0161988Y0019664D01*
X0161833Y0019764D01*
X0161681Y0019868D01*
X0161532Y0019976D01*
X0161386Y0020087D01*
X0161242Y0020202D01*
X0161101Y0020321D01*
X0160963Y0020443D01*
X0160828Y0020568D01*
X0160697Y0020697D01*
X0160568Y0020828D01*
X0160443Y0020963D01*
X0160321Y0021101D01*
X0160202Y0021242D01*
X0160087Y0021386D01*
X0159976Y0021532D01*
X0159868Y0021681D01*
X0159764Y0021833D01*
X0159664Y0021988D01*
X0159567Y0022144D01*
X0159474Y0022303D01*
X0159386Y0022465D01*
X0159301Y0022628D01*
X0159220Y0022793D01*
X0159143Y0022961D01*
X0159071Y0023130D01*
X0159003Y0023301D01*
X0158938Y0023473D01*
X0158879Y0023647D01*
X0158823Y0023823D01*
X0158772Y0024000D01*
X0158725Y0024178D01*
X0158682Y0024357D01*
X0158644Y0024537D01*
X0158610Y0024718D01*
X0158581Y0024900D01*
X0158556Y0025082D01*
X0158536Y0025265D01*
X0158520Y0025448D01*
X0158509Y0025632D01*
X0158502Y0025816D01*
X0158500Y0026000D01*
D11*
X0141000Y0036000D03*
X0131000Y0036000D03*
X0121000Y0036000D03*
X0101000Y0036000D03*
X0091000Y0036000D03*
X0081000Y0036000D03*
X0071000Y0036000D03*
X0041000Y0036000D03*
X0041000Y0016000D03*
X0051000Y0016000D03*
X0071000Y0016000D03*
X0081000Y0016000D03*
X0101000Y0016000D03*
X0111000Y0016000D03*
X0131000Y0016000D03*
X0141000Y0016000D03*
D12*
X0141000Y0036000D01*
X0121000Y0036000D02*
X0113500Y0028500D01*
X0098500Y0028500D01*
X0091000Y0036000D01*
X0081000Y0036000D02*
X0071000Y0036000D01*
X0053500Y0023500D02*
X0041000Y0036000D01*
X0041000Y0016000D01*
X0051000Y0016000D02*
X0058500Y0008500D01*
X0081000Y0008500D01*
X0081000Y0016000D01*
X0071000Y0016000D02*
X0071000Y0023500D01*
X0053500Y0023500D01*
X0071000Y0023500D02*
X0101000Y0023500D01*
X0101000Y0016000D01*
X0111000Y0016000D02*
X0111000Y0008500D01*
X0081000Y0008500D01*
X0111000Y0008500D02*
X0136000Y0008500D01*
X0141000Y0013500D01*
X0141000Y0016000D01*
X0131000Y0016000D02*
X0123500Y0023500D01*
X0101000Y0023500D01*
M02*
